<svg width="161" height="21" viewBox="0 0 161 21" fill="none" xmlns="http://www.w3.org/2000/svg">
<path d="M13.87 21L9.82 15.15H9.58H5.35V21H0.49V-1.43051e-06H9.58C11.44 -1.43051e-06 13.05 0.309999 14.41 0.929999C15.79 1.55 16.85 2.43 17.59 3.57C18.33 4.71 18.7 6.06 18.7 7.62C18.7 9.18 18.32 10.53 17.56 11.67C16.82 12.79 15.76 13.65 14.38 14.25L19.09 21H13.87ZM13.78 7.62C13.78 6.44 13.4 5.54 12.64 4.92C11.88 4.28 10.77 3.96 9.31 3.96H5.35V11.28H9.31C10.77 11.28 11.88 10.96 12.64 10.32C13.4 9.68 13.78 8.78 13.78 7.62ZM38.8105 17.1V21H22.5505V-1.43051e-06H38.4205V3.9H27.3805V8.46H37.1305V12.24H27.3805V17.1H38.8105ZM47.5375 3.9V9.45H57.2575V13.35H47.5375V21H42.6775V-1.43051e-06H58.5475V3.9H47.5375ZM61.8377 -1.43051e-06H66.6977V17.04H77.2277V21H61.8377V-1.43051e-06ZM96.2031 17.1V21H79.9431V-1.43051e-06H95.8131V3.9H84.7731V8.46H94.5231V12.24H84.7731V17.1H96.2031ZM113.095 21L108.025 13.71L103.045 21H97.465L105.235 10.32L97.855 -1.43051e-06H103.375L108.205 6.81L112.945 -1.43051e-06H118.195L110.875 10.14L118.705 21H113.095ZM129.777 -1.43051e-06H134.637V21H129.777V-1.43051e-06ZM139.621 -1.43051e-06H149.161C151.441 -1.43051e-06 153.451 0.439999 155.191 1.32C156.951 2.18 158.311 3.4 159.271 4.98C160.251 6.56 160.741 8.4 160.741 10.5C160.741 12.6 160.251 14.44 159.271 16.02C158.311 17.6 156.951 18.83 155.191 19.71C153.451 20.57 151.441 21 149.161 21H139.621V-1.43051e-06ZM148.921 17.01C151.021 17.01 152.691 16.43 153.931 15.27C155.191 14.09 155.821 12.5 155.821 10.5C155.821 8.5 155.191 6.92 153.931 5.76C152.691 4.58 151.021 3.99 148.921 3.99H144.481V17.01H148.921Z" fill="#00478F"/>
</svg>
