<svg width="40" height="41" viewBox="0 0 40 41" fill="none" xmlns="http://www.w3.org/2000/svg">
<rect width="40" height="40.3908" rx="10" fill="white" fill-opacity="0.9"/>
<path d="M15.3443 10.4805L15.9103 9.17789C17.0218 6.61985 20.0097 5.41559 22.5974 6.53561C23.5786 6.96156 24.4044 7.68138 24.959 8.59399C25.5136 9.50661 25.7689 10.5662 25.6892 11.6238C25.6503 12.1294 25.7712 12.6362 26.0347 13.0734C26.2984 13.5105 26.6916 13.8563 27.1596 14.0624C27.5295 13.2084 27.7259 12.2884 27.7377 11.355C27.7495 10.4215 27.5765 9.49285 27.2286 8.62206C26.8805 7.75134 26.3644 6.95546 25.7096 6.28003C25.0548 5.60458 24.2741 5.06279 23.4122 4.68558C19.7877 3.10433 15.5931 4.78024 14.0342 8.3676L8.63876 20.7837L7.60873 20.3309C4.98362 19.1769 3.75003 16.1122 4.92684 13.5314C5.36329 12.5782 6.0876 11.7866 6.99982 11.2658C7.91204 10.7451 8.96719 10.5209 10.0196 10.6242C10.5015 10.6751 10.9855 10.5731 11.4025 10.333C11.8195 10.0929 12.1482 9.7269 12.3416 9.28725L12.3554 9.25571C12.3597 9.24591 12.362 9.23533 12.3622 9.22459C12.3624 9.21386 12.3604 9.20317 12.3564 9.19314C12.3524 9.18312 12.3465 9.17396 12.339 9.16619C12.3314 9.15843 12.3224 9.1522 12.3125 9.14787C10.6004 8.42076 8.67851 8.3824 6.95361 9.04089C5.22873 9.69938 3.83612 11.0031 3.07048 12.6761C1.42414 16.2874 3.14186 20.5754 6.81542 22.1904L19.3411 27.6967L18.7681 29.0152C17.6566 31.5733 14.6686 32.7776 12.081 31.6575C11.0999 31.2316 10.274 30.5117 9.71945 29.5991C9.1649 28.6865 8.90948 27.627 8.98906 26.5693C9.02798 26.0637 8.90722 25.557 8.64367 25.1198C8.38007 24.6826 7.9868 24.3368 7.51883 24.1307C7.14897 24.9847 6.95249 25.9047 6.94064 26.8381C6.92883 27.7716 7.10182 28.7002 7.44986 29.5711C7.79785 30.4418 8.31402 31.2377 8.96883 31.913C9.62368 32.5885 10.4043 33.1303 11.2662 33.5075C14.8906 35.0889 19.0854 33.4131 20.6443 29.8256L26.0466 17.3931L27.0805 17.8476C29.6618 18.9824 30.9039 21.9707 29.8072 24.5352C29.3902 25.5076 28.6761 26.322 27.7656 26.8644C26.8551 27.4067 25.7937 27.6494 24.7305 27.5585C24.2222 27.5142 23.7142 27.6289 23.2779 27.8869C22.8416 28.1447 22.4985 28.5329 22.2967 28.9969C23.1585 29.3745 24.0846 29.5802 25.0223 29.6022C25.96 29.6241 26.8907 29.462 27.7616 29.125C28.6323 28.7879 29.426 28.2826 30.0972 27.6379C30.7685 26.9932 31.3041 26.2217 31.6736 25.3676C33.2224 21.7758 31.4933 17.5805 27.8734 15.9891L15.3443 10.4805ZM20.1463 25.8425L10.5097 21.6063L14.5386 12.3349L24.1751 16.5711L20.1463 25.8425Z" fill="url(#paint0_linear)"/>
<defs>
<linearGradient id="paint0_linear" x1="12.4137" y1="6.72132" x2="21.9932" y2="31.5766" gradientUnits="userSpaceOnUse">
<stop offset="0.078125" stop-color="#00478F"/>
<stop offset="0.526042" stop-color="#FA8900"/>
<stop offset="1" stop-color="#00478F"/>
</linearGradient>
</defs>
</svg>
