<svg width="164" height="14" viewBox="0 0 164 14" fill="none" xmlns="http://www.w3.org/2000/svg">
<path d="M4.298 11.084C3.57 11.084 2.87 10.9673 2.198 10.734C1.53533 10.5007 1.022 10.1927 0.658 9.81L1.064 9.012C1.41867 9.36667 1.89 9.656 2.478 9.88C3.066 10.0947 3.67267 10.202 4.298 10.202C5.17533 10.202 5.83333 10.0433 6.272 9.726C6.71067 9.39933 6.93 8.97933 6.93 8.466C6.93 8.074 6.80867 7.76133 6.566 7.528C6.33267 7.29467 6.04333 7.11733 5.698 6.996C5.35267 6.86533 4.872 6.72533 4.256 6.576C3.51867 6.38933 2.93067 6.212 2.492 6.044C2.05333 5.86667 1.67533 5.60067 1.358 5.246C1.05 4.89133 0.896 4.41067 0.896 3.804C0.896 3.30933 1.02667 2.86133 1.288 2.46C1.54933 2.04933 1.95067 1.72267 2.492 1.48C3.03333 1.23733 3.70533 1.116 4.508 1.116C5.068 1.116 5.614 1.19533 6.146 1.354C6.68733 1.50333 7.154 1.71333 7.546 1.984L7.196 2.81C6.78533 2.53933 6.34667 2.33867 5.88 2.208C5.41333 2.068 4.956 1.998 4.508 1.998C3.64933 1.998 3.00067 2.166 2.562 2.502C2.13267 2.82867 1.918 3.25333 1.918 3.776C1.918 4.168 2.03467 4.48533 2.268 4.728C2.51067 4.96133 2.80933 5.14333 3.164 5.274C3.528 5.39533 4.01333 5.53067 4.62 5.68C5.33867 5.85733 5.91733 6.03467 6.356 6.212C6.804 6.38 7.182 6.64133 7.49 6.996C7.798 7.34133 7.952 7.81267 7.952 8.41C7.952 8.90467 7.81667 9.35733 7.546 9.768C7.28467 10.1693 6.87867 10.4913 6.328 10.734C5.77733 10.9673 5.10067 11.084 4.298 11.084ZM13.8773 10.552C13.6906 10.72 13.4573 10.8507 13.1773 10.944C12.9066 11.028 12.6219 11.07 12.3233 11.07C11.6326 11.07 11.1006 10.8833 10.7273 10.51C10.3539 10.1367 10.1673 9.60933 10.1673 8.928V4.476H8.85128V3.636H10.1673V2.026H11.1613V3.636H13.4013V4.476H11.1613V8.872C11.1613 9.31067 11.2686 9.64667 11.4833 9.88C11.7073 10.104 12.0246 10.216 12.4353 10.216C12.6406 10.216 12.8366 10.1833 13.0233 10.118C13.2193 10.0527 13.3873 9.95933 13.5273 9.838L13.8773 10.552ZM16.6388 5.078C16.8721 4.58333 17.2174 4.21 17.6748 3.958C18.1414 3.706 18.7154 3.58 19.3968 3.58V4.546L19.1588 4.532C18.3841 4.532 17.7774 4.77 17.3388 5.246C16.9001 5.722 16.6808 6.38933 16.6808 7.248V11H15.6868V3.636H16.6388V5.078ZM27.5402 7.626H21.3802C21.4362 8.39133 21.7302 9.012 22.2622 9.488C22.7942 9.95467 23.4662 10.188 24.2782 10.188C24.7355 10.188 25.1555 10.1087 25.5382 9.95C25.9209 9.782 26.2522 9.53933 26.5322 9.222L27.0922 9.866C26.7655 10.258 26.3549 10.5567 25.8602 10.762C25.3749 10.9673 24.8382 11.07 24.2502 11.07C23.4942 11.07 22.8222 10.9113 22.2342 10.594C21.6555 10.2673 21.2029 9.81933 20.8762 9.25C20.5495 8.68067 20.3862 8.03667 20.3862 7.318C20.3862 6.59933 20.5402 5.95533 20.8482 5.386C21.1655 4.81667 21.5949 4.37333 22.1362 4.056C22.6869 3.73867 23.3029 3.58 23.9842 3.58C24.6655 3.58 25.2769 3.73867 25.8182 4.056C26.3595 4.37333 26.7842 4.81667 27.0922 5.386C27.4002 5.946 27.5542 6.59 27.5542 7.318L27.5402 7.626ZM23.9842 4.434C23.2749 4.434 22.6775 4.66267 22.1922 5.12C21.7162 5.568 21.4455 6.156 21.3802 6.884H26.6022C26.5369 6.156 26.2615 5.568 25.7762 5.12C25.3002 4.66267 24.7029 4.434 23.9842 4.434ZM33.3294 3.58C34.2534 3.58 34.9861 3.85067 35.5274 4.392C36.0781 4.924 36.3534 5.70333 36.3534 6.73V11H35.3594V6.828C35.3594 6.06267 35.1681 5.47933 34.7854 5.078C34.4027 4.67667 33.8567 4.476 33.1474 4.476C32.3541 4.476 31.7241 4.714 31.2574 5.19C30.8001 5.65667 30.5714 6.30533 30.5714 7.136V11H29.5774V3.636H30.5294V4.994C30.8001 4.546 31.1734 4.20067 31.6494 3.958C32.1347 3.706 32.6947 3.58 33.3294 3.58ZM45.8974 3.636V10.104C45.8974 11.3547 45.5894 12.2787 44.9734 12.876C44.3667 13.4827 43.4474 13.786 42.2154 13.786C41.534 13.786 40.8854 13.6833 40.2694 13.478C39.6627 13.282 39.168 13.0067 38.7854 12.652L39.2894 11.896C39.644 12.2133 40.0734 12.4607 40.5774 12.638C41.0907 12.8153 41.6274 12.904 42.1874 12.904C43.1207 12.904 43.8067 12.6847 44.2454 12.246C44.684 11.8167 44.9034 11.1447 44.9034 10.23V9.292C44.5954 9.75867 44.1894 10.1133 43.6854 10.356C43.1907 10.5987 42.64 10.72 42.0334 10.72C41.3427 10.72 40.7127 10.5707 40.1434 10.272C39.5834 9.964 39.14 9.53933 38.8134 8.998C38.496 8.44733 38.3374 7.82667 38.3374 7.136C38.3374 6.44533 38.496 5.82933 38.8134 5.288C39.14 4.74667 39.5834 4.32667 40.1434 4.028C40.7034 3.72933 41.3334 3.58 42.0334 3.58C42.6587 3.58 43.2234 3.706 43.7274 3.958C44.2314 4.21 44.6374 4.574 44.9454 5.05V3.636H45.8974ZM42.1314 9.838C42.6634 9.838 43.144 9.726 43.5734 9.502C44.0027 9.26867 44.334 8.94667 44.5674 8.536C44.81 8.12533 44.9314 7.65867 44.9314 7.136C44.9314 6.61333 44.81 6.15133 44.5674 5.75C44.334 5.33933 44.0027 5.022 43.5734 4.798C43.1534 4.56467 42.6727 4.448 42.1314 4.448C41.5994 4.448 41.1187 4.56 40.6894 4.784C40.2694 5.008 39.938 5.32533 39.6954 5.736C39.462 6.14667 39.3454 6.61333 39.3454 7.136C39.3454 7.65867 39.462 8.12533 39.6954 8.536C39.938 8.94667 40.2694 9.26867 40.6894 9.502C41.1187 9.726 41.5994 9.838 42.1314 9.838ZM52.555 10.552C52.3683 10.72 52.135 10.8507 51.855 10.944C51.5843 11.028 51.2997 11.07 51.001 11.07C50.3103 11.07 49.7783 10.8833 49.405 10.51C49.0317 10.1367 48.845 9.60933 48.845 8.928V4.476H47.529V3.636H48.845V2.026H49.839V3.636H52.079V4.476H49.839V8.872C49.839 9.31067 49.9463 9.64667 50.161 9.88C50.385 10.104 50.7023 10.216 51.113 10.216C51.3183 10.216 51.5143 10.1833 51.701 10.118C51.897 10.0527 52.065 9.95933 52.205 9.838L52.555 10.552ZM58.1165 3.58C59.0405 3.58 59.7732 3.85067 60.3145 4.392C60.8652 4.924 61.1405 5.70333 61.1405 6.73V11H60.1465V6.828C60.1465 6.06267 59.9552 5.47933 59.5725 5.078C59.1898 4.67667 58.6438 4.476 57.9345 4.476C57.1412 4.476 56.5112 4.714 56.0445 5.19C55.5872 5.65667 55.3585 6.30533 55.3585 7.136V11H54.3645V0.611999H55.3585V4.924C55.6292 4.49467 56.0025 4.16333 56.4785 3.93C56.9545 3.69667 57.5005 3.58 58.1165 3.58ZM70.2785 7.626H64.1185C64.1745 8.39133 64.4685 9.012 65.0005 9.488C65.5325 9.95467 66.2045 10.188 67.0165 10.188C67.4738 10.188 67.8938 10.1087 68.2765 9.95C68.6591 9.782 68.9905 9.53933 69.2705 9.222L69.8305 9.866C69.5038 10.258 69.0931 10.5567 68.5985 10.762C68.1131 10.9673 67.5765 11.07 66.9885 11.07C66.2325 11.07 65.5605 10.9113 64.9725 10.594C64.3938 10.2673 63.9411 9.81933 63.6145 9.25C63.2878 8.68067 63.1245 8.03667 63.1245 7.318C63.1245 6.59933 63.2785 5.95533 63.5865 5.386C63.9038 4.81667 64.3331 4.37333 64.8745 4.056C65.4251 3.73867 66.0411 3.58 66.7225 3.58C67.4038 3.58 68.0151 3.73867 68.5565 4.056C69.0978 4.37333 69.5225 4.81667 69.8305 5.386C70.1385 5.946 70.2925 6.59 70.2925 7.318L70.2785 7.626ZM66.7225 4.434C66.0131 4.434 65.4158 4.66267 64.9305 5.12C64.4545 5.568 64.1838 6.156 64.1185 6.884H69.3405C69.2751 6.156 68.9998 5.568 68.5145 5.12C68.0385 4.66267 67.4411 4.434 66.7225 4.434ZM76.0677 3.58C76.9917 3.58 77.7244 3.85067 78.2657 4.392C78.8164 4.924 79.0917 5.70333 79.0917 6.73V11H78.0977V6.828C78.0977 6.06267 77.9064 5.47933 77.5237 5.078C77.141 4.67667 76.595 4.476 75.8857 4.476C75.0924 4.476 74.4624 4.714 73.9957 5.19C73.5384 5.65667 73.3097 6.30533 73.3097 7.136V11H72.3157V3.636H73.2677V4.994C73.5384 4.546 73.9117 4.20067 74.3877 3.958C74.873 3.706 75.433 3.58 76.0677 3.58ZM81.7903 3.636H82.7843V11H81.7903V3.636ZM82.2943 2.026C82.089 2.026 81.9163 1.956 81.7763 1.816C81.6363 1.676 81.5663 1.508 81.5663 1.312C81.5663 1.12533 81.6363 0.962 81.7763 0.821999C81.9163 0.681999 82.089 0.611999 82.2943 0.611999C82.4996 0.611999 82.6723 0.681999 82.8123 0.821999C82.9523 0.952666 83.0223 1.11133 83.0223 1.298C83.0223 1.50333 82.9523 1.676 82.8123 1.816C82.6723 1.956 82.4996 2.026 82.2943 2.026ZM89.3021 3.58C90.2261 3.58 90.9587 3.85067 91.5001 4.392C92.0507 4.924 92.3261 5.70333 92.3261 6.73V11H91.3321V6.828C91.3321 6.06267 91.1407 5.47933 90.7581 5.078C90.3754 4.67667 89.8294 4.476 89.1201 4.476C88.3267 4.476 87.6967 4.714 87.2301 5.19C86.7727 5.65667 86.5441 6.30533 86.5441 7.136V11H85.5501V3.636H86.5021V4.994C86.7727 4.546 87.1461 4.20067 87.6221 3.958C88.1074 3.706 88.6674 3.58 89.3021 3.58ZM101.87 3.636V10.104C101.87 11.3547 101.562 12.2787 100.946 12.876C100.339 13.4827 99.42 13.786 98.188 13.786C97.5067 13.786 96.858 13.6833 96.242 13.478C95.6353 13.282 95.1407 13.0067 94.758 12.652L95.262 11.896C95.6167 12.2133 96.046 12.4607 96.55 12.638C97.0633 12.8153 97.6 12.904 98.16 12.904C99.0933 12.904 99.7793 12.6847 100.218 12.246C100.657 11.8167 100.876 11.1447 100.876 10.23V9.292C100.568 9.75867 100.162 10.1133 99.658 10.356C99.1633 10.5987 98.6127 10.72 98.006 10.72C97.3153 10.72 96.6853 10.5707 96.116 10.272C95.556 9.964 95.1127 9.53933 94.786 8.998C94.4687 8.44733 94.31 7.82667 94.31 7.136C94.31 6.44533 94.4687 5.82933 94.786 5.288C95.1127 4.74667 95.556 4.32667 96.116 4.028C96.676 3.72933 97.306 3.58 98.006 3.58C98.6313 3.58 99.196 3.706 99.7 3.958C100.204 4.21 100.61 4.574 100.918 5.05V3.636H101.87ZM98.104 9.838C98.636 9.838 99.1167 9.726 99.546 9.502C99.9753 9.26867 100.307 8.94667 100.54 8.536C100.783 8.12533 100.904 7.65867 100.904 7.136C100.904 6.61333 100.783 6.15133 100.54 5.75C100.307 5.33933 99.9753 5.022 99.546 4.798C99.126 4.56467 98.6453 4.448 98.104 4.448C97.572 4.448 97.0913 4.56 96.662 4.784C96.242 5.008 95.9107 5.32533 95.668 5.736C95.4347 6.14667 95.318 6.61333 95.318 7.136C95.318 7.65867 95.4347 8.12533 95.668 8.536C95.9107 8.94667 96.242 9.26867 96.662 9.502C97.0913 9.726 97.572 9.838 98.104 9.838ZM111.226 11.084C110.498 11.084 109.798 10.9673 109.126 10.734C108.463 10.5007 107.95 10.1927 107.586 9.81L107.992 9.012C108.346 9.36667 108.818 9.656 109.406 9.88C109.994 10.0947 110.6 10.202 111.226 10.202C112.103 10.202 112.761 10.0433 113.2 9.726C113.638 9.39933 113.858 8.97933 113.858 8.466C113.858 8.074 113.736 7.76133 113.494 7.528C113.26 7.29467 112.971 7.11733 112.626 6.996C112.28 6.86533 111.8 6.72533 111.184 6.576C110.446 6.38933 109.858 6.212 109.42 6.044C108.981 5.86667 108.603 5.60067 108.286 5.246C107.978 4.89133 107.824 4.41067 107.824 3.804C107.824 3.30933 107.954 2.86133 108.216 2.46C108.477 2.04933 108.878 1.72267 109.42 1.48C109.961 1.23733 110.633 1.116 111.436 1.116C111.996 1.116 112.542 1.19533 113.074 1.354C113.615 1.50333 114.082 1.71333 114.474 1.984L114.124 2.81C113.713 2.53933 113.274 2.33867 112.808 2.208C112.341 2.068 111.884 1.998 111.436 1.998C110.577 1.998 109.928 2.166 109.49 2.502C109.06 2.82867 108.846 3.25333 108.846 3.776C108.846 4.168 108.962 4.48533 109.196 4.728C109.438 4.96133 109.737 5.14333 110.092 5.274C110.456 5.39533 110.941 5.53067 111.548 5.68C112.266 5.85733 112.845 6.03467 113.284 6.212C113.732 6.38 114.11 6.64133 114.418 6.996C114.726 7.34133 114.88 7.81267 114.88 8.41C114.88 8.90467 114.744 9.35733 114.474 9.768C114.212 10.1693 113.806 10.4913 113.256 10.734C112.705 10.9673 112.028 11.084 111.226 11.084ZM123.339 7.626H117.179C117.235 8.39133 117.529 9.012 118.061 9.488C118.593 9.95467 119.265 10.188 120.077 10.188C120.534 10.188 120.954 10.1087 121.337 9.95C121.72 9.782 122.051 9.53933 122.331 9.222L122.891 9.866C122.564 10.258 122.154 10.5567 121.659 10.762C121.174 10.9673 120.637 11.07 120.049 11.07C119.293 11.07 118.621 10.9113 118.033 10.594C117.454 10.2673 117.002 9.81933 116.675 9.25C116.348 8.68067 116.185 8.03667 116.185 7.318C116.185 6.59933 116.339 5.95533 116.647 5.386C116.964 4.81667 117.394 4.37333 117.935 4.056C118.486 3.73867 119.102 3.58 119.783 3.58C120.464 3.58 121.076 3.73867 121.617 4.056C122.158 4.37333 122.583 4.81667 122.891 5.386C123.199 5.946 123.353 6.59 123.353 7.318L123.339 7.626ZM119.783 4.434C119.074 4.434 118.476 4.66267 117.991 5.12C117.515 5.568 117.244 6.156 117.179 6.884H122.401C122.336 6.156 122.06 5.568 121.575 5.12C121.099 4.66267 120.502 4.434 119.783 4.434ZM128.428 11.07C127.7 11.07 127.047 10.9113 126.468 10.594C125.899 10.2767 125.451 9.83333 125.124 9.264C124.798 8.68533 124.634 8.03667 124.634 7.318C124.634 6.59933 124.798 5.95533 125.124 5.386C125.451 4.81667 125.899 4.37333 126.468 4.056C127.047 3.73867 127.7 3.58 128.428 3.58C129.063 3.58 129.628 3.706 130.122 3.958C130.626 4.20067 131.023 4.56 131.312 5.036L130.57 5.54C130.328 5.176 130.02 4.90533 129.646 4.728C129.273 4.54133 128.867 4.448 128.428 4.448C127.896 4.448 127.416 4.56933 126.986 4.812C126.566 5.04533 126.235 5.38133 125.992 5.82C125.759 6.25867 125.642 6.758 125.642 7.318C125.642 7.88733 125.759 8.39133 125.992 8.83C126.235 9.25933 126.566 9.59533 126.986 9.838C127.416 10.0713 127.896 10.188 128.428 10.188C128.867 10.188 129.273 10.0993 129.646 9.922C130.02 9.74467 130.328 9.474 130.57 9.11L131.312 9.614C131.023 10.09 130.626 10.454 130.122 10.706C129.618 10.9487 129.054 11.07 128.428 11.07ZM139.901 3.636V11H138.949V9.656C138.688 10.104 138.328 10.454 137.871 10.706C137.414 10.9487 136.891 11.07 136.303 11.07C135.342 11.07 134.581 10.804 134.021 10.272C133.47 9.73067 133.195 8.942 133.195 7.906V3.636H134.189V7.808C134.189 8.58267 134.38 9.17067 134.763 9.572C135.146 9.97333 135.692 10.174 136.401 10.174C137.176 10.174 137.787 9.94067 138.235 9.474C138.683 8.998 138.907 8.34 138.907 7.5V3.636H139.901ZM143.637 5.078C143.87 4.58333 144.215 4.21 144.673 3.958C145.139 3.706 145.713 3.58 146.395 3.58V4.546L146.157 4.532C145.382 4.532 144.775 4.77 144.337 5.246C143.898 5.722 143.679 6.38933 143.679 7.248V11H142.685V3.636H143.637V5.078ZM148.195 3.636H149.189V11H148.195V3.636ZM148.699 2.026C148.493 2.026 148.321 1.956 148.181 1.816C148.041 1.676 147.971 1.508 147.971 1.312C147.971 1.12533 148.041 0.962 148.181 0.821999C148.321 0.681999 148.493 0.611999 148.699 0.611999C148.904 0.611999 149.077 0.681999 149.217 0.821999C149.357 0.952666 149.427 1.11133 149.427 1.298C149.427 1.50333 149.357 1.676 149.217 1.816C149.077 1.956 148.904 2.026 148.699 2.026ZM155.832 10.552C155.646 10.72 155.412 10.8507 155.132 10.944C154.862 11.028 154.577 11.07 154.278 11.07C153.588 11.07 153.056 10.8833 152.682 10.51C152.309 10.1367 152.122 9.60933 152.122 8.928V4.476H150.806V3.636H152.122V2.026H153.116V3.636H155.356V4.476H153.116V8.872C153.116 9.31067 153.224 9.64667 153.438 9.88C153.662 10.104 153.98 10.216 154.39 10.216C154.596 10.216 154.792 10.1833 154.978 10.118C155.174 10.0527 155.342 9.95933 155.482 9.838L155.832 10.552ZM163.693 3.636L160.011 11.882C159.712 12.5727 159.367 13.0627 158.975 13.352C158.583 13.6413 158.112 13.786 157.561 13.786C157.206 13.786 156.875 13.73 156.567 13.618C156.259 13.506 155.993 13.338 155.769 13.114L156.231 12.372C156.604 12.7453 157.052 12.932 157.575 12.932C157.911 12.932 158.196 12.8387 158.429 12.652C158.672 12.4653 158.896 12.148 159.101 11.7L159.423 10.986L156.133 3.636H157.169L159.941 9.894L162.713 3.636H163.693Z" fill="#00478F"/>
</svg>
